<mxfile host="app.diagrams.net" agent="Mozilla/5.0 (Windows NT 10.0; Win64; x64) AppleWebKit/537.36 (KHTML, like Gecko) Chrome/127.0.0.0 Safari/537.36" version="24.7.6">
  <diagram name="Page-1" id="1lOyRCHVsbrXzp9gZHVk">
    <mxGraphModel dx="2284" dy="772" grid="1" gridSize="10" guides="1" tooltips="1" connect="1" arrows="1" fold="1" page="1" pageScale="1" pageWidth="850" pageHeight="1100" math="0" shadow="0">
      <root>
        <mxCell id="0" />
        <mxCell id="1" parent="0" />
        <mxCell id="HwcREc6K7EFbWNtx4Y22-30" style="edgeStyle=orthogonalEdgeStyle;rounded=0;orthogonalLoop=1;jettySize=auto;html=1;strokeWidth=2;strokeColor=#99CCFF;shadow=1;" edge="1" parent="1" source="HwcREc6K7EFbWNtx4Y22-1">
          <mxGeometry relative="1" as="geometry">
            <mxPoint x="360" y="390" as="targetPoint" />
          </mxGeometry>
        </mxCell>
        <mxCell id="HwcREc6K7EFbWNtx4Y22-1" value="&lt;font color=&quot;#ffffff&quot;&gt;Global HRIS&lt;/font&gt;" style="shape=cylinder3;whiteSpace=wrap;html=1;boundedLbl=1;backgroundOutline=1;size=15;fillColor=#fa6800;strokeColor=#C73500;fontColor=#000000;shadow=1;" vertex="1" parent="1">
          <mxGeometry x="220" y="350" width="90" height="80" as="geometry" />
        </mxCell>
        <mxCell id="HwcREc6K7EFbWNtx4Y22-40" style="edgeStyle=orthogonalEdgeStyle;rounded=0;orthogonalLoop=1;jettySize=auto;html=1;exitX=0.5;exitY=0;exitDx=0;exitDy=0;exitPerimeter=0;curved=1;shadow=1;" edge="1" parent="1" source="HwcREc6K7EFbWNtx4Y22-2" target="HwcREc6K7EFbWNtx4Y22-31">
          <mxGeometry relative="1" as="geometry" />
        </mxCell>
        <mxCell id="HwcREc6K7EFbWNtx4Y22-41" style="edgeStyle=orthogonalEdgeStyle;rounded=0;orthogonalLoop=1;jettySize=auto;html=1;exitX=0.855;exitY=0;exitDx=0;exitDy=4.35;exitPerimeter=0;entryX=0;entryY=1;entryDx=0;entryDy=0;curved=1;shadow=1;" edge="1" parent="1" source="HwcREc6K7EFbWNtx4Y22-2" target="HwcREc6K7EFbWNtx4Y22-36">
          <mxGeometry relative="1" as="geometry">
            <Array as="points">
              <mxPoint x="686" y="330" />
              <mxPoint x="726" y="330" />
            </Array>
          </mxGeometry>
        </mxCell>
        <mxCell id="HwcREc6K7EFbWNtx4Y22-42" style="edgeStyle=orthogonalEdgeStyle;rounded=0;orthogonalLoop=1;jettySize=auto;html=1;curved=1;shadow=1;" edge="1" parent="1" source="HwcREc6K7EFbWNtx4Y22-2" target="HwcREc6K7EFbWNtx4Y22-37">
          <mxGeometry relative="1" as="geometry" />
        </mxCell>
        <mxCell id="HwcREc6K7EFbWNtx4Y22-44" style="edgeStyle=orthogonalEdgeStyle;rounded=0;orthogonalLoop=1;jettySize=auto;html=1;exitX=0.5;exitY=1;exitDx=0;exitDy=0;exitPerimeter=0;entryX=0;entryY=0;entryDx=0;entryDy=0;curved=1;shadow=1;" edge="1" parent="1" source="HwcREc6K7EFbWNtx4Y22-2" target="HwcREc6K7EFbWNtx4Y22-39">
          <mxGeometry relative="1" as="geometry" />
        </mxCell>
        <mxCell id="HwcREc6K7EFbWNtx4Y22-46" style="edgeStyle=orthogonalEdgeStyle;rounded=1;orthogonalLoop=1;jettySize=auto;html=1;exitX=0.29;exitY=0.983;exitDx=0;exitDy=0;exitPerimeter=0;curved=0;shadow=1;" edge="1" parent="1" source="HwcREc6K7EFbWNtx4Y22-2" target="HwcREc6K7EFbWNtx4Y22-45">
          <mxGeometry relative="1" as="geometry" />
        </mxCell>
        <mxCell id="HwcREc6K7EFbWNtx4Y22-2" value="&lt;font color=&quot;#ffffff&quot;&gt;BOOMI&lt;/font&gt;" style="shape=cylinder3;whiteSpace=wrap;html=1;boundedLbl=1;backgroundOutline=1;size=15;fillColor=#0050ef;strokeColor=#E6E6E6;fontColor=#ffffff;shadow=1;" vertex="1" parent="1">
          <mxGeometry x="600" y="365" width="100" height="60" as="geometry" />
        </mxCell>
        <mxCell id="HwcREc6K7EFbWNtx4Y22-3" value="AZURE AD" style="shape=cylinder3;whiteSpace=wrap;html=1;boundedLbl=1;backgroundOutline=1;size=15;fillColor=#1ba1e2;fontColor=#ffffff;strokeColor=#E6FFCC;shadow=1;" vertex="1" parent="1">
          <mxGeometry x="385" y="160" width="80" height="80" as="geometry" />
        </mxCell>
        <mxCell id="HwcREc6K7EFbWNtx4Y22-5" value="&lt;span style=&quot;font-size: 11px; background-color: initial;&quot;&gt;HR Data Dictionary&lt;/span&gt;" style="text;html=1;align=center;verticalAlign=middle;whiteSpace=wrap;rounded=0;fillColor=#CCFF99;gradientColor=none;strokeColor=none;shadow=1;" vertex="1" parent="1">
          <mxGeometry x="363" y="335" width="197" height="20" as="geometry" />
        </mxCell>
        <mxCell id="HwcREc6K7EFbWNtx4Y22-6" value="&lt;span style=&quot;font-size: 11px; background-color: initial;&quot;&gt;Master Data Changes&lt;/span&gt;" style="text;html=1;align=center;verticalAlign=middle;whiteSpace=wrap;rounded=0;fillColor=#CCFF99;gradientColor=none;strokeColor=none;fontFamily=Helvetica;fontSize=12;fontColor=default;shadow=1;" vertex="1" parent="1">
          <mxGeometry x="362" y="360" width="198" height="20" as="geometry" />
        </mxCell>
        <mxCell id="HwcREc6K7EFbWNtx4Y22-9" value="" style="triangle;whiteSpace=wrap;html=1;fillColor=#f5f5f5;strokeColor=none;gradientColor=#b3b3b3;shadow=1;" vertex="1" parent="1">
          <mxGeometry x="562" y="330" width="28" height="130" as="geometry" />
        </mxCell>
        <mxCell id="HwcREc6K7EFbWNtx4Y22-14" value="&lt;span style=&quot;background-color: initial;&quot;&gt;Organization Master Data&lt;/span&gt;" style="text;html=1;align=center;verticalAlign=middle;whiteSpace=wrap;rounded=0;fillColor=#CCFF99;gradientColor=none;strokeColor=none;shadow=1;" vertex="1" parent="1">
          <mxGeometry x="360" y="410" width="200" height="15" as="geometry" />
        </mxCell>
        <mxCell id="HwcREc6K7EFbWNtx4Y22-15" value="&lt;span style=&quot;background-color: initial;&quot;&gt;Worker Master Data&lt;/span&gt;&lt;span style=&quot;background-color: initial;&quot;&gt;&amp;nbsp;&lt;/span&gt;" style="text;html=1;align=center;verticalAlign=middle;whiteSpace=wrap;rounded=0;fillColor=#CCFF99;gradientColor=none;strokeColor=none;shadow=1;" vertex="1" parent="1">
          <mxGeometry x="362" y="383.5" width="200" height="17.5" as="geometry" />
        </mxCell>
        <mxCell id="HwcREc6K7EFbWNtx4Y22-17" value="Job, Positions, Headcounts, recruiting data" style="text;html=1;align=center;verticalAlign=middle;whiteSpace=wrap;rounded=0;fillColor=#CCFF99;gradientColor=none;strokeColor=none;shadow=1;" vertex="1" parent="1">
          <mxGeometry x="360" y="435" width="200" height="20" as="geometry" />
        </mxCell>
        <mxCell id="HwcREc6K7EFbWNtx4Y22-18" value="&lt;font color=&quot;#e6e6e6&quot;&gt;PAYROLL&amp;nbsp;&lt;/font&gt;" style="shape=cylinder3;whiteSpace=wrap;html=1;boundedLbl=1;backgroundOutline=1;size=15;fillColor=#000066;strokeColor=#FFFFFF;gradientColor=none;shadow=1;" vertex="1" parent="1">
          <mxGeometry x="60" y="170" width="80" height="60" as="geometry" />
        </mxCell>
        <mxCell id="HwcREc6K7EFbWNtx4Y22-20" value="&lt;font color=&quot;#e6e6e6&quot;&gt;PAYROLL&amp;nbsp;&lt;/font&gt;" style="shape=cylinder3;whiteSpace=wrap;html=1;boundedLbl=1;backgroundOutline=1;size=15;fillColor=#000066;strokeColor=#FFFFFF;gradientColor=none;shadow=1;" vertex="1" parent="1">
          <mxGeometry x="240" y="170" width="80" height="60" as="geometry" />
        </mxCell>
        <mxCell id="HwcREc6K7EFbWNtx4Y22-22" value="&lt;font color=&quot;#e6e6e6&quot;&gt;PAYROLL&amp;nbsp;&lt;/font&gt;" style="shape=cylinder3;whiteSpace=wrap;html=1;boundedLbl=1;backgroundOutline=1;size=15;fillColor=#000066;strokeColor=#FFFFFF;gradientColor=none;shadow=1;" vertex="1" parent="1">
          <mxGeometry x="150" y="170" width="80" height="60" as="geometry" />
        </mxCell>
        <mxCell id="HwcREc6K7EFbWNtx4Y22-23" style="edgeStyle=orthogonalEdgeStyle;rounded=1;orthogonalLoop=1;jettySize=auto;html=1;entryX=0.5;entryY=1;entryDx=0;entryDy=0;entryPerimeter=0;curved=0;strokeWidth=2;strokeColor=#99CCFF;shadow=1;" edge="1" parent="1" source="HwcREc6K7EFbWNtx4Y22-1" target="HwcREc6K7EFbWNtx4Y22-18">
          <mxGeometry relative="1" as="geometry">
            <Array as="points">
              <mxPoint x="100" y="390" />
            </Array>
          </mxGeometry>
        </mxCell>
        <mxCell id="HwcREc6K7EFbWNtx4Y22-24" style="edgeStyle=orthogonalEdgeStyle;rounded=1;orthogonalLoop=1;jettySize=auto;html=1;entryX=0.5;entryY=1;entryDx=0;entryDy=0;entryPerimeter=0;exitX=0;exitY=0;exitDx=0;exitDy=27.5;exitPerimeter=0;curved=0;strokeWidth=2;strokeColor=#99CCFF;shadow=1;" edge="1" parent="1" source="HwcREc6K7EFbWNtx4Y22-1" target="HwcREc6K7EFbWNtx4Y22-22">
          <mxGeometry relative="1" as="geometry">
            <Array as="points">
              <mxPoint x="190" y="378" />
            </Array>
          </mxGeometry>
        </mxCell>
        <mxCell id="HwcREc6K7EFbWNtx4Y22-28" style="edgeStyle=orthogonalEdgeStyle;rounded=1;orthogonalLoop=1;jettySize=auto;html=1;entryX=0.5;entryY=1;entryDx=0;entryDy=0;entryPerimeter=0;curved=0;strokeWidth=2;strokeColor=#99CCFF;shadow=1;" edge="1" parent="1" source="HwcREc6K7EFbWNtx4Y22-1" target="HwcREc6K7EFbWNtx4Y22-20">
          <mxGeometry relative="1" as="geometry" />
        </mxCell>
        <mxCell id="HwcREc6K7EFbWNtx4Y22-29" style="edgeStyle=orthogonalEdgeStyle;rounded=1;orthogonalLoop=1;jettySize=auto;html=1;entryX=1;entryY=0;entryDx=0;entryDy=27.5;entryPerimeter=0;curved=0;strokeWidth=2;strokeColor=#99CCFF;shadow=1;" edge="1" parent="1" source="HwcREc6K7EFbWNtx4Y22-3" target="HwcREc6K7EFbWNtx4Y22-1">
          <mxGeometry relative="1" as="geometry" />
        </mxCell>
        <mxCell id="HwcREc6K7EFbWNtx4Y22-31" value="TH" style="ellipse;whiteSpace=wrap;html=1;aspect=fixed;fillColor=#dae8fc;gradientColor=none;strokeColor=none;shadow=1;" vertex="1" parent="1">
          <mxGeometry x="670" y="220" width="40" height="40" as="geometry" />
        </mxCell>
        <mxCell id="HwcREc6K7EFbWNtx4Y22-36" value="NI" style="ellipse;whiteSpace=wrap;html=1;aspect=fixed;fillColor=#dae8fc;gradientColor=none;strokeColor=none;shadow=1;" vertex="1" parent="1">
          <mxGeometry x="720" y="260" width="40" height="40" as="geometry" />
        </mxCell>
        <mxCell id="HwcREc6K7EFbWNtx4Y22-37" value="CT" style="ellipse;whiteSpace=wrap;html=1;aspect=fixed;fillColor=#dae8fc;gradientColor=none;strokeColor=none;shadow=1;" vertex="1" parent="1">
          <mxGeometry x="740" y="340" width="40" height="40" as="geometry" />
        </mxCell>
        <mxCell id="HwcREc6K7EFbWNtx4Y22-38" value="GFS" style="ellipse;whiteSpace=wrap;html=1;aspect=fixed;fillColor=#dae8fc;gradientColor=none;strokeColor=none;shadow=1;" vertex="1" parent="1">
          <mxGeometry x="740" y="415" width="40" height="40" as="geometry" />
        </mxCell>
        <mxCell id="HwcREc6K7EFbWNtx4Y22-39" value="LP" style="ellipse;whiteSpace=wrap;html=1;aspect=fixed;fillColor=#dae8fc;gradientColor=none;strokeColor=none;shadow=1;" vertex="1" parent="1">
          <mxGeometry x="690" y="470" width="40" height="40" as="geometry" />
        </mxCell>
        <mxCell id="HwcREc6K7EFbWNtx4Y22-43" style="edgeStyle=orthogonalEdgeStyle;rounded=0;orthogonalLoop=1;jettySize=auto;html=1;exitX=1;exitY=1;exitDx=0;exitDy=-15;exitPerimeter=0;entryX=-0.05;entryY=0.725;entryDx=0;entryDy=0;entryPerimeter=0;curved=1;shadow=1;" edge="1" parent="1" source="HwcREc6K7EFbWNtx4Y22-2" target="HwcREc6K7EFbWNtx4Y22-38">
          <mxGeometry relative="1" as="geometry" />
        </mxCell>
        <mxCell id="HwcREc6K7EFbWNtx4Y22-45" value="Analytics" style="rounded=1;whiteSpace=wrap;html=1;fillColor=#dae8fc;gradientColor=none;strokeColor=none;shadow=1;" vertex="1" parent="1">
          <mxGeometry x="490" y="520" width="260" height="20" as="geometry" />
        </mxCell>
        <mxCell id="HwcREc6K7EFbWNtx4Y22-47" value="Workday Standard Reporting &amp;amp; Analytics" style="rounded=1;whiteSpace=wrap;html=1;fillColor=#fff2cc;gradientColor=#ffd966;strokeColor=#d6b656;shadow=1;" vertex="1" parent="1">
          <mxGeometry x="170" y="470" width="390" height="20" as="geometry" />
        </mxCell>
        <mxCell id="HwcREc6K7EFbWNtx4Y22-48" style="edgeStyle=orthogonalEdgeStyle;rounded=1;orthogonalLoop=1;jettySize=auto;html=1;entryX=0.145;entryY=1;entryDx=0;entryDy=-4.35;entryPerimeter=0;curved=0;dashed=1;shadow=1;" edge="1" parent="1" source="HwcREc6K7EFbWNtx4Y22-47" target="HwcREc6K7EFbWNtx4Y22-2">
          <mxGeometry relative="1" as="geometry">
            <Array as="points">
              <mxPoint x="590" y="480" />
              <mxPoint x="590" y="421" />
            </Array>
          </mxGeometry>
        </mxCell>
        <mxCell id="HwcREc6K7EFbWNtx4Y22-50" value="&lt;span style=&quot;font-size: 11px; text-wrap: nowrap;&quot;&gt;Payroll Transactional Data&lt;/span&gt;" style="text;html=1;align=center;verticalAlign=middle;whiteSpace=wrap;rounded=0;fillColor=default;gradientColor=#FFFFCC;shadow=1;" vertex="1" parent="1">
          <mxGeometry x="50" y="280" width="260" height="30" as="geometry" />
        </mxCell>
        <mxCell id="HwcREc6K7EFbWNtx4Y22-51" value="&lt;span style=&quot;font-size: 11px; text-wrap: nowrap;&quot;&gt;JML / HR PROCESS&lt;/span&gt;" style="text;html=1;align=center;verticalAlign=middle;whiteSpace=wrap;rounded=0;fillColor=default;gradientColor=#FFFFCC;shadow=1;" vertex="1" parent="1">
          <mxGeometry x="310" y="250" width="120" height="30" as="geometry" />
        </mxCell>
        <mxCell id="HwcREc6K7EFbWNtx4Y22-52" value="If there&#39;s downstream systems master for data, that can import into Workday" style="text;html=1;align=center;verticalAlign=middle;whiteSpace=wrap;rounded=0;fillColor=#FFFFCC;gradientColor=none;strokeColor=none;shadow=1;" vertex="1" parent="1">
          <mxGeometry x="530" y="570" width="265" height="30" as="geometry" />
        </mxCell>
        <mxCell id="HwcREc6K7EFbWNtx4Y22-54" style="edgeStyle=orthogonalEdgeStyle;rounded=1;orthogonalLoop=1;jettySize=auto;html=1;entryX=0.21;entryY=1.1;entryDx=0;entryDy=0;entryPerimeter=0;curved=0;dashed=1;shadow=1;" edge="1" parent="1" source="HwcREc6K7EFbWNtx4Y22-52" target="HwcREc6K7EFbWNtx4Y22-47">
          <mxGeometry relative="1" as="geometry">
            <Array as="points">
              <mxPoint x="252" y="585" />
            </Array>
          </mxGeometry>
        </mxCell>
        <mxCell id="HwcREc6K7EFbWNtx4Y22-57" value="&lt;span style=&quot;font-size: 11px;&quot;&gt;Built in Change Detection Mechanism, reporting of data as structured pre-transformed&lt;/span&gt;" style="shape=note;whiteSpace=wrap;html=1;backgroundOutline=1;darkOpacity=0.05;fillColor=#FFFFCC;gradientColor=none;strokeColor=none;shadow=1;" vertex="1" parent="1">
          <mxGeometry y="410" width="130" height="90" as="geometry" />
        </mxCell>
      </root>
    </mxGraphModel>
  </diagram>
</mxfile>
